<?xml version="1.0" encoding="UTF-8"?> <svg xmlns="http://www.w3.org/2000/svg" width="180" height="180" viewBox="0 0 180 180" fill="none"><rect width="180" height="180" fill="#11003A"></rect><path d="M141.728 60.9973C141.728 55.9633 143.779 51.385 147.073 48.0912L131.909 32.9062C128.594 36.2001 124.037 38.251 119.003 38.251C108.914 38.251 100.731 30.0681 100.731 19.9793H90H79.269C79.269 30.0681 71.0861 38.251 60.9973 38.251C55.9633 38.251 51.385 36.2001 48.0912 32.9062L32.9269 48.0912C36.2208 51.4057 38.2717 55.9633 38.2717 60.9973C38.2717 71.0861 30.0888 79.269 20 79.269V100.731C30.0888 100.731 38.2717 108.914 38.2717 119.003C38.2717 124.037 36.2208 128.615 32.9269 131.909L48.0912 147.094C51.4057 143.8 55.9633 141.749 60.9973 141.749C71.0861 141.749 79.269 149.932 79.269 160.021H90H100.731C100.731 149.932 108.914 141.749 119.003 141.749C124.037 141.749 128.615 143.8 131.909 147.094L147.073 131.909C143.779 128.594 141.728 124.037 141.728 119.003C141.728 108.914 149.911 100.731 160 100.731V79.269C149.911 79.269 141.728 71.0861 141.728 60.9973ZM125.155 110.281L90 130.583L54.8446 110.281V69.6774L90 49.3756L125.155 69.6774V110.281Z" fill="#00E664"></path></svg> 